<svg width="33" height="32" viewBox="0 0 33 32" fill="none" xmlns="http://www.w3.org/2000/svg">
<rect x="1.25" y="0.75" width="30.5" height="30.5" rx="15.25" fill="#9C27B0"/>
<path d="M16.5002 9.33301C13.9202 9.33301 11.8335 11.4197 11.8335 13.9997C11.8335 17.4997 16.5002 22.6663 16.5002 22.6663C16.5002 22.6663 21.1668 17.4997 21.1668 13.9997C21.1668 11.4197 19.0802 9.33301 16.5002 9.33301ZM16.5002 15.6663C15.5802 15.6663 14.8335 14.9197 14.8335 13.9997C14.8335 13.0797 15.5802 12.333 16.5002 12.333C17.4202 12.333 18.1668 13.0797 18.1668 13.9997C18.1668 14.9197 17.4202 15.6663 16.5002 15.6663Z" fill="white"/>
<rect x="1.25" y="0.75" width="30.5" height="30.5" rx="15.25" stroke="white" stroke-width="1.5"/>
</svg>
